<?xml version="1.0" encoding="UTF-8" standalone="no"?>
<svg
   xmlns:dc="http://purl.org/dc/elements/1.1/"
   xmlns:cc="http://creativecommons.org/ns#"
   xmlns:rdf="http://www.w3.org/1999/02/22-rdf-syntax-ns#"
   xmlns:svg="http://www.w3.org/2000/svg"
   xmlns="http://www.w3.org/2000/svg"
   xmlns:sodipodi="http://sodipodi.sourceforge.net/DTD/sodipodi-0.dtd"
   xmlns:inkscape="http://www.inkscape.org/namespaces/inkscape"
   width="100"
   height="100"
   viewBox="0 0 30.005999 30.006"
   version="1.1"
   id="svg4"
   sodipodi:docname="object_tasklist.svg"
   inkscape:version="0.92.5 (2060ec1f9f, 2020-04-08)"
   inkscape:export-filename="/home/john/WWW/dolibarr/htdocs/custom/tasklist/img/tasklist.png"
   inkscape:export-xdpi="61.439999"
   inkscape:export-ydpi="61.439999">
  <metadata
     id="metadata10">
    <rdf:RDF>
      <cc:Work
         rdf:about="">
        <dc:format>image/svg+xml</dc:format>
        <dc:type
           rdf:resource="http://purl.org/dc/dcmitype/StillImage" />
        <dc:title></dc:title>
      </cc:Work>
    </rdf:RDF>
  </metadata>
  <defs
     id="defs8">
	
	
	
	
	
	
	
</defs>
  <sodipodi:namedview
     pagecolor="#505050"
     bordercolor="#ffffff"
     borderopacity="1"
     objecttolerance="10"
     gridtolerance="10"
     guidetolerance="10"
     inkscape:pageopacity="0"
     inkscape:pageshadow="2"
     inkscape:window-width="1920"
     inkscape:window-height="1043"
     id="namedview6"
     showgrid="false"
     fit-margin-top="0"
     fit-margin-left="0"
     fit-margin-right="0"
     fit-margin-bottom="0"
     viewbox-width="24"
     viewbox-height="24"
     scale-x="0.30006"
     inkscape:zoom="6.9532167"
     inkscape:cx="80.05735"
     inkscape:cy="45.719407"
     inkscape:window-x="0"
     inkscape:window-y="293"
     inkscape:window-maximized="1"
     inkscape:current-layer="svg4" />
  <g
     id="g4"
     style="fill:#00384e;fill-opacity:1"
     transform="matrix(0.49720637,0,0,0.49720637,-9.8525837,-9.2643307)">
		<path
   d="m 22,66 h 5 c 1.1,0 2,-0.9 2,-2 V 33 c 0,-1.1 -0.9,-2 -2,-2 h -5 c -1.1,0 -2,0.9 -2,2 v 31 c 0,1.1 0.9,2 2,2 z"
   id="path2-3"
   style="fill:#00384e;fill-opacity:1"
   inkscape:connector-curvature="0" />

	</g>
  <g
     id="g8"
     style="fill:#00384e;fill-opacity:1"
     transform="matrix(0.49720637,0,0,0.49720637,-9.8525837,-9.2643307)">
		<path
   d="m 78,31 h -5 c -1.1,0 -2,0.9 -2,2 v 31 c 0,1.1 0.9,2 2,2 h 5 c 1.1,0 2,-0.9 2,-2 V 33 c 0,-1.1 -0.9,-2 -2,-2 z"
   id="path6"
   style="fill:#00384e;fill-opacity:1"
   inkscape:connector-curvature="0" />

	</g>
  <g
     id="g24"
     style="fill:#00384e;fill-opacity:1"
     transform="matrix(0.49720637,0,0,0.49720637,-9.8525837,-9.2643307)">
		<path
   d="M 78,72 H 22 c -1.1,0 -2,0.9 -2,2 v 2 c 0,1.1 0.9,2 2,2 h 56 c 1.1,0 2,-0.9 2,-2 v -2 c 0,-1.1 -0.9,-2 -2,-2 z"
   id="path22"
   style="fill:#00384e;fill-opacity:1"
   inkscape:connector-curvature="0" />

	</g>
  <g
     id="g28"
     style="fill:#00384e;fill-opacity:1"
     transform="matrix(0.49720637,0,0,0.49720637,-9.8525837,-9.2643307)">
		<path
   d="M 78,20 H 22 c -1.1,0 -2,0.9 -2,2 v 2 c 0,1.1 0.9,2 2,2 h 56 c 1.1,0 2,-0.9 2,-2 v -2 c 0,-1.1 -0.9,-2 -2,-2 z"
   id="path26"
   style="fill:#00384e;fill-opacity:1"
   inkscape:connector-curvature="0" />

	</g>
  <path
     style="fill:none;stroke:#cb4f24;stroke-width:3.66989756;stroke-opacity:1"
     inkscape:connector-curvature="0"
     id="path826"
     d="M 22.425505,9.6530928 13.250761,18.827836 7.745914,13.32299"
     sodipodi:nodetypes="ccc" />
</svg>
